<svg width="16" height="16" viewBox="0 0 16 16" fill="none" xmlns="http://www.w3.org/2000/svg">
<g clip-path="url(#clip0_2321_51580)">
<path fill-rule="evenodd" clip-rule="evenodd" d="M10.906 7.19404L9.03333 2.13333L7.1607 7.19404L2.1 9.06667L7.1607 10.9393L9.03333 16L10.906 10.9393L15.9667 9.06667L10.906 7.19404ZM13.0742 9.06667L10.0956 7.96448L9.03333 5.09387L7.97111 7.96448L4.99249 9.06667L7.97111 10.1689L9.03333 13.0395L10.0956 10.1689L13.0742 9.06667ZM2.64107 3.7256L3.43333 5.86667L4.2256 3.7256L6.36667 2.93333L4.2256 2.14107L3.43333 0L2.64107 2.14107L0.5 2.93333L2.64107 3.7256ZM3.39249 2.93333L3.43333 2.94845L3.47418 2.93333L3.43333 2.91822L3.39249 2.93333Z" fill="black" fill-opacity="0.38"/>
</g>
<defs>
<clipPath id="clip0_2321_51580">
<rect width="16" height="16" fill="white"/>
</clipPath>
</defs>
</svg>
