<svg width="24" height="24" viewBox="0 0 24 24" fill="none" xmlns="http://www.w3.org/2000/svg">
<g clip-path="url(#clip0_2321_51583)">
<path fill-rule="evenodd" clip-rule="evenodd" d="M16.3589 10.7911L13.55 3.2L10.7411 10.7911L3.15 13.6L10.7411 16.4089L13.55 24L16.3589 16.4089L23.95 13.6L16.3589 10.7911ZM19.6113 13.6L15.1433 11.9467L13.55 7.64081L11.9567 11.9467L7.48873 13.6L11.9567 15.2533L13.55 19.5592L15.1433 15.2533L19.6113 13.6ZM3.9616 5.5884L5.15 8.8L6.3384 5.5884L9.55 4.4L6.3384 3.2116L5.15 0L3.9616 3.2116L0.75 4.4L3.9616 5.5884ZM5.08873 4.4L5.15 4.42267L5.21127 4.4L5.15 4.37733L5.08873 4.4Z" fill="black" fill-opacity="0.38"/>
</g>
<defs>
<clipPath id="clip0_2321_51583">
<rect width="24" height="24" fill="white"/>
</clipPath>
</defs>
</svg>
