<svg width="32" height="32" viewBox="0 0 32 32" fill="none" xmlns="http://www.w3.org/2000/svg">
<path fill-rule="evenodd" clip-rule="evenodd" d="M21.8119 14.3881L18.0667 4.26667L14.3214 14.3881L4.2 18.1333L14.3214 21.8786L18.0667 32L21.8119 21.8786L31.9333 18.1333L21.8119 14.3881ZM26.1484 18.1333L20.1911 15.929L18.0667 10.1877L15.9422 15.929L9.98497 18.1333L15.9422 20.3377L18.0667 26.0789L20.1911 20.3377L26.1484 18.1333ZM5.28213 7.4512L6.86667 11.7333L8.4512 7.4512L12.7333 5.86667L8.4512 4.28213L6.86667 0L5.28213 4.28213L1 5.86667L5.28213 7.4512ZM6.78497 5.86667L6.86667 5.8969L6.94836 5.86667L6.86667 5.83644L6.78497 5.86667Z" fill="black" fill-opacity="0.38"/>
</svg>
